<?xml version="1.0" encoding="UTF-8" standalone="no"?>
<svg
   version="1.0"
   width="500pt"
   height="300pt"
   viewBox="0 0 500 300"
   preserveAspectRatio="xMidYMid"
   id="svg30"
   sodipodi:docname="logo-of-pelican-flying-fast.svg"
   xml:space="preserve"
   inkscape:version="1.4 (e7c3feb, 2024-10-09)"
   xmlns:inkscape="http://www.inkscape.org/namespaces/inkscape"
   xmlns:sodipodi="http://sodipodi.sourceforge.net/DTD/sodipodi-0.dtd"
   xmlns="http://www.w3.org/2000/svg"
   xmlns:svg="http://www.w3.org/2000/svg"><defs
     id="defs30"><inkscape:path-effect
       effect="fillet_chamfer"
       id="path-effect32"
       nodesatellites_param="F,0,1,1,0,528.84535,0,1 @ F,0,1,1,0,528.84535,0,1 @ F,0,1,1,0,528.84535,0,1 @ F,0,0,1,0,528.84535,0,1 | F,0,0,1,0,0,0,1 @ F,0,0,1,0,0,0,1 @ F,0,0,1,0,0,0,1 @ F,0,0,1,0,0,0,1 @ F,0,0,1,0,0,0,1 @ F,0,0,1,0,0,0,1 @ F,0,0,1,0,0,0,1 @ F,0,0,1,0,0,0,1 @ F,0,0,1,0,0,0,1 @ F,0,0,1,0,0,0,1 @ F,0,0,1,0,0,0,1 @ F,0,0,1,0,0,0,1 @ F,0,0,1,0,0,0,1 @ F,0,0,1,0,0,0,1 @ F,0,0,1,0,0,0,1 @ F,0,0,1,0,0,0,1 @ F,0,0,1,0,0,0,1 @ F,0,0,1,0,0,0,1 @ F,0,0,1,0,0,0,1 @ F,0,0,1,0,0,0,1 @ F,0,0,1,0,0,0,1 @ F,0,0,1,0,0,0,1 @ F,0,0,1,0,0,0,1 @ F,0,0,1,0,0,0,1 @ F,0,0,1,0,0,0,1 @ F,0,0,1,0,0,0,1 @ F,0,0,1,0,0,0,1 @ F,0,0,1,0,0,0,1 @ F,0,0,1,0,0,0,1 @ F,0,0,1,0,0,0,1 @ F,0,0,1,0,0,0,1 @ F,0,0,1,0,0,0,1 @ F,0,0,1,0,0,0,1 @ F,0,0,1,0,0,0,1 @ F,0,0,1,0,0,0,1 @ F,0,0,1,0,0,0,1 @ F,0,0,1,0,0,0,1 @ F,0,0,1,0,0,0,1 @ F,0,0,1,0,0,0,1 @ F,0,0,1,0,0,0,1 @ F,0,0,1,0,0,0,1 @ F,0,0,1,0,0,0,1 @ F,0,0,1,0,0,0,1 @ F,0,0,1,0,0,0,1 @ F,0,0,1,0,0,0,1 @ F,0,0,1,0,0,0,1 @ F,0,0,1,0,0,0,1 @ F,0,0,1,0,0,0,1 @ F,0,0,1,0,0,0,1 @ F,0,0,1,0,0,0,1 @ F,0,0,1,0,0,0,1 @ F,0,0,1,0,0,0,1 @ F,0,0,1,0,0,0,1 @ F,0,0,1,0,0,0,1 @ F,0,0,1,0,0,0,1 @ F,0,0,1,0,0,0,1 @ F,0,0,1,0,0,0,1"
       is_visible="true"
       lpeversion="1"
       radius="0"
       unit="px"
       method="auto"
       mode="F"
       chamfer_steps="1"
       flexible="false"
       use_knot_distance="true"
       apply_no_radius="true"
       apply_with_radius="true"
       only_selected="false"
       hide_knots="false" /><inkscape:path-effect
       effect="fillet_chamfer"
       id="path-effect30"
       is_visible="true"
       lpeversion="1"
       nodesatellites_param="F,0,0,1,0,0,0,1 @ F,0,0,1,0,0,0,1 @ F,0,0,1,0,0,0,1 @ F,0,0,1,0,49.499863,0,1 @ F,0,0,1,0,0,0,1 @ F,0,0,1,0,0,0,1 @ F,0,0,1,0,0,0,1 @ F,0,0,1,0,0,0,1 @ F,0,0,1,0,0,0,1 @ F,0,0,1,0,0,0,1 @ F,0,0,1,0,0,0,1 @ F,0,0,1,0,0,0,1 @ F,0,0,1,0,0,0,1 @ F,0,0,1,0,0,0,1 @ F,0,0,1,0,0,0,1 @ F,0,0,1,0,0,0,1 @ F,0,0,1,0,0,0,1 @ F,0,0,1,0,72.84899,0,1 @ F,0,0,1,0,0,0,1 @ F,0,0,1,0,55.615046,0,1 @ F,0,0,1,0,0,0,1 @ F,0,0,1,0,0,0,1 @ F,0,0,1,0,0,0,1 @ F,0,0,1,0,0,0,1 @ F,0,0,1,0,142.01479,0,1 @ F,0,0,1,0,0,0,1 @ F,0,0,1,0,0,0,1 @ F,0,0,1,0,0,0,1 @ F,0,0,1,0,0,0,1 @ F,0,0,1,0,38.918355,0,1 @ F,0,0,1,0,0,0,1 @ F,0,0,1,0,0,0,1 @ F,0,0,1,0,0,0,1 @ F,0,0,1,0,0,0,1 @ F,0,0,1,0,59.886211,0,1 @ F,0,0,1,0,0,0,1 @ F,0,0,1,0,0,0,1 @ F,0,0,1,0,0,0,1 @ F,0,0,1,0,0,0,1 @ F,0,0,1,0,0,0,1 @ F,0,0,1,0,0,0,1 @ F,0,0,1,0,0,0,1 @ F,0,0,1,0,0,0,1 @ F,0,0,1,0,0,0,1 @ F,0,0,1,0,0,0,1 @ F,0,0,1,0,0,0,1 @ F,0,0,1,0,0,0,1 @ F,0,0,1,0,0,0,1 @ F,0,0,1,0,0,0,1"
       radius="0"
       unit="px"
       method="auto"
       mode="F"
       chamfer_steps="1"
       flexible="false"
       use_knot_distance="true"
       apply_no_radius="true"
       apply_with_radius="true"
       only_selected="false"
       hide_knots="false" /><inkscape:path-effect
       effect="fillet_chamfer"
       id="path-effect30-5"
       is_visible="true"
       lpeversion="1"
       nodesatellites_param="F,0,0,1,0,0,0,1 @ F,0,0,1,0,0,0,1 @ F,0,0,1,0,0,0,1 @ F,0,0,1,0,49.499863,0,1 @ F,0,0,1,0,0,0,1 @ F,0,0,1,0,0,0,1 @ F,0,0,1,0,0,0,1 @ F,0,0,1,0,0,0,1 @ F,0,0,1,0,0,0,1 @ F,0,0,1,0,0,0,1 @ F,0,0,1,0,0,0,1 @ F,0,0,1,0,0,0,1 @ F,0,0,1,0,0,0,1 @ F,0,0,1,0,0,0,1 @ F,0,0,1,0,0,0,1 @ F,0,0,1,0,0,0,1 @ F,0,0,1,0,0,0,1 @ F,0,0,1,0,72.84899,0,1 @ F,0,0,1,0,0,0,1 @ F,0,0,1,0,55.615046,0,1 @ F,0,0,1,0,0,0,1 @ F,0,0,1,0,0,0,1 @ F,0,0,1,0,0,0,1 @ F,0,0,1,0,0,0,1 @ F,0,0,1,0,142.01479,0,1 @ F,0,0,1,0,0,0,1 @ F,0,0,1,0,0,0,1 @ F,0,0,1,0,0,0,1 @ F,0,0,1,0,0,0,1 @ F,0,0,1,0,38.918355,0,1 @ F,0,0,1,0,0,0,1 @ F,0,0,1,0,0,0,1 @ F,0,0,1,0,0,0,1 @ F,0,0,1,0,0,0,1 @ F,0,0,1,0,59.886211,0,1 @ F,0,0,1,0,0,0,1 @ F,0,0,1,0,0,0,1 @ F,0,0,1,0,0,0,1 @ F,0,0,1,0,0,0,1 @ F,0,0,1,0,0,0,1 @ F,0,0,1,0,0,0,1 @ F,0,0,1,0,0,0,1 @ F,0,0,1,0,0,0,1 @ F,0,0,1,0,0,0,1 @ F,0,0,1,0,0,0,1 @ F,0,0,1,0,0,0,1 @ F,0,0,1,0,0,0,1 @ F,0,0,1,0,0,0,1 @ F,0,0,1,0,0,0,1"
       radius="0"
       unit="px"
       method="auto"
       mode="F"
       chamfer_steps="1"
       flexible="false"
       use_knot_distance="true"
       apply_no_radius="true"
       apply_with_radius="true"
       only_selected="false"
       hide_knots="false" /><inkscape:path-effect
       effect="fillet_chamfer"
       id="path-effect30-5-5"
       is_visible="true"
       lpeversion="1"
       nodesatellites_param="F,0,0,1,0,0,0,1 @ F,0,0,1,0,0,0,1 @ F,0,0,1,0,0,0,1 @ F,0,0,1,0,49.499863,0,1 @ F,0,0,1,0,0,0,1 @ F,0,0,1,0,0,0,1 @ F,0,0,1,0,0,0,1 @ F,0,0,1,0,0,0,1 @ F,0,0,1,0,0,0,1 @ F,0,0,1,0,0,0,1 @ F,0,0,1,0,0,0,1 @ F,0,0,1,0,0,0,1 @ F,0,0,1,0,0,0,1 @ F,0,0,1,0,0,0,1 @ F,0,0,1,0,0,0,1 @ F,0,0,1,0,0,0,1 @ F,0,0,1,0,0,0,1 @ F,0,0,1,0,72.84899,0,1 @ F,0,0,1,0,0,0,1 @ F,0,0,1,0,55.615046,0,1 @ F,0,0,1,0,0,0,1 @ F,0,0,1,0,0,0,1 @ F,0,0,1,0,0,0,1 @ F,0,0,1,0,0,0,1 @ F,0,0,1,0,142.01479,0,1 @ F,0,0,1,0,0,0,1 @ F,0,0,1,0,0,0,1 @ F,0,0,1,0,0,0,1 @ F,0,0,1,0,0,0,1 @ F,0,0,1,0,38.918355,0,1 @ F,0,0,1,0,0,0,1 @ F,0,0,1,0,0,0,1 @ F,0,0,1,0,0,0,1 @ F,0,0,1,0,0,0,1 @ F,0,0,1,0,59.886211,0,1 @ F,0,0,1,0,0,0,1 @ F,0,0,1,0,0,0,1 @ F,0,0,1,0,0,0,1 @ F,0,0,1,0,0,0,1 @ F,0,0,1,0,0,0,1 @ F,0,0,1,0,0,0,1 @ F,0,0,1,0,0,0,1 @ F,0,0,1,0,0,0,1 @ F,0,0,1,0,0,0,1 @ F,0,0,1,0,0,0,1 @ F,0,0,1,0,0,0,1 @ F,0,0,1,0,0,0,1 @ F,0,0,1,0,0,0,1 @ F,0,0,1,0,0,0,1"
       radius="0"
       unit="px"
       method="auto"
       mode="F"
       chamfer_steps="1"
       flexible="false"
       use_knot_distance="true"
       apply_no_radius="true"
       apply_with_radius="true"
       only_selected="false"
       hide_knots="false" /><filter
       id="mask-powermask-path-effect32_inverse"
       inkscape:label="filtermask-powermask-path-effect32"
       style="color-interpolation-filters:sRGB"
       height="100"
       width="100"
       x="-50"
       y="-50"><feColorMatrix
         id="mask-powermask-path-effect32_primitive1"
         values="1"
         type="saturate"
         result="fbSourceGraphic" /><feColorMatrix
         id="mask-powermask-path-effect32_primitive2"
         values="-1 0 0 0 1 0 -1 0 0 1 0 0 -1 0 1 0 0 0 1 0 "
         in="fbSourceGraphic" /></filter></defs><sodipodi:namedview
     id="namedview30"
     pagecolor="#ffffff"
     bordercolor="#000000"
     borderopacity="0.25"
     inkscape:showpageshadow="2"
     inkscape:pageopacity="0.0"
     inkscape:pagecheckerboard="0"
     inkscape:deskcolor="#d1d1d1"
     inkscape:document-units="pt"
     showgrid="false"
     inkscape:zoom="0.41587408"
     inkscape:cx="632.40296"
     inkscape:cy="-44.484619"
     inkscape:window-width="1872"
     inkscape:window-height="1011"
     inkscape:window-x="48"
     inkscape:window-y="32"
     inkscape:window-maximized="1"
     inkscape:current-layer="g30" /><metadata
     id="metadata1">
Created by potrace 1.16, written by Peter Selinger 2001-2019
</metadata><g
     transform="matrix(0.1,0,0,-0.1,0,512)"
     fill="#000000"
     stroke="none"
     id="g30"><path
       id="rect31"
       style="fill:#457fc5;fill-opacity:1;stroke:none;stroke-width:14.1732;stroke-linecap:round"
       d="m 663.12012,-4489.1429 v 1633.0253 a 528.84535,528.84535 45 0 0 528.84538,528.8454 H 4521.013 a 528.84535,528.84535 135 0 0 528.8454,-528.8454 V -4489.1429 A 528.84535,528.84535 45 0 0 4521.013,-5017.9883 H 1191.9655 a 528.84535,528.84535 135 0 0 -528.84538,528.8454 z m 3342.52438,-256.7653 c 5.8064,-2.3151 12.4417,-0.287 15.9616,4.8786 3.52,5.1657 2.9802,12.0829 -1.2985,16.64 l -408.3838,435.6298 c -65.3936,69.7539 -133.8308,136.9663 -194.1797,211.128 -46.9219,57.6615 -96.2764,114.9378 -130.0341,181.1718 -28.4355,55.7917 -45.4304,117.2135 -59.1358,178.3155 -15.8304,70.5757 -23.2883,143.1353 -26.2207,215.4052 -1.7635,43.4616 -7.8357,88.897 5.2295,130.3858 18.3437,58.2509 50.9604,116.3882 98.8916,154.2334 32.5564,25.7057 100.2814,78.778 117.4805,41.0303 19.8079,-43.4733 -92.3527,-35.7074 -124.4531,-71.0889 -41.6951,-45.9569 -66.2025,-108.5948 -76.2159,-169.834 -6.9576,-42.5507 -1.1157,-87.8586 12.6123,-128.7305 10.5237,-31.332 23.195,-68.0586 51.8555,-84.5214 83.2844,-47.8391 193.2853,-21.9088 288.0762,-6.4307 31.6433,5.1669 62.6403,16.7237 90.4834,32.6221 20.3454,11.6172 33.7412,33.302 54.1406,44.8242 167.3324,94.5144 454.34,146.7478 680.625,222.7881 86.131,28.9433 176.6822,47.7095 257.6953,88.8574 l 62.5635,31.7724 c 12.303,6.2755 8.5202,24.7679 -5.2588,25.7081 l -160.9863,10.7812 c -163.1092,10.911 -325.9201,-27.1023 -488.086,-47.7393 -82.5931,-10.5108 -163.8328,-31.3853 -246.7675,-38.7304 -14.8791,-1.3178 -39.6052,-14.9444 -44.795,-0.9375 -10.0034,26.9985 54.9971,28.5934 66.6944,54.9023 24.6732,55.4935 22.2863,129.5263 -8.2764,182.0069 -52.0732,89.4172 -165.6126,129.6592 -262.7637,165.2783 -72.7858,26.6859 -154.2439,17.4751 -230.2441,32.7685 -132.2159,26.6055 -258.5803,79.1607 -391.4356,102.3633 -149.2962,26.0739 -301.3513,45.7954 -452.8271,40.8692 -138.0198,-4.4886 -274.4474,-34.2609 -409.3066,-63.9698 -85.5462,-18.8454 -165.1486,-76.2388 -252.6563,-72.2754 -37.2982,1.6893 -67.471,35.4268 -104.4726,40.4151 -62.0134,8.3601 -162.7855,-5.3135 -230.7569,-16.9922 -39.6493,-6.8125 -44.4952,-31.9236 -11.0303,-54.2578 70.2743,-46.9006 185.6245,-123.1981 256.7579,-166.5821 50.5439,-30.8266 135.6828,-78.5957 189.2285,-108.3398 26.8505,-14.9152 27.7425,-40.3812 1.9189,-57.0117 l -163.9746,-105.6006 c -91.9716,-59.2303 -170.7038,-137.9777 -245.4199,-217.8809 -39.2757,-42.0023 -51.3573,-155.3982 -105.6299,-136.3916 l -203.584,71.294 -275.9619,160.3857 c -8.88313,5.1594 -20.20641,3.0212 -26.59639,-5.0223 -6.38998,-8.0435 -5.91197,-19.557 1.12276,-27.0431 l 325.78123,-346.2598 c 168.0148,-178.5743 474.8386,-125.7542 716.9678,-164.3701 93.7234,-14.9474 190.3164,-43.6806 283.5351,-25.8545 30.2596,5.7865 70.4956,13.3713 82.4561,41.7627 l 68.2471,161.9824 c 5.9502,14.1155 25.7054,14.7815 32.5927,1.0987 l 44.1065,-87.7002 c 42.7229,-84.9404 109.5994,-155.7285 171.2402,-228.1201 42.1748,-49.5306 82.0389,-103.3417 135.4102,-140.5372 142.4697,-99.2898 324.2693,-126.7843 477.0849,-209.2675 z"
       transform="matrix(1.139799,0,0,-1.1149448,-755.82366,-474.78022)"
       sodipodi:nodetypes="ccccccsccsssssssssssssssccccssssssssssssssssssscccsccssccccsscc"
       inkscape:original-d="m 663.12012,-5017.9883 v 2690.7161 H 5049.8584 v -2690.7161 z m 3342.52438,272.0801 c 5.8064,-2.3151 12.4417,-0.287 15.9616,4.8786 3.52,5.1657 2.9802,12.0829 -1.2985,16.64 l -408.3838,435.6298 c -65.3936,69.7539 -133.8308,136.9663 -194.1797,211.128 -46.9219,57.6615 -96.2764,114.9378 -130.0341,181.1718 -28.4355,55.7917 -45.4304,117.2135 -59.1358,178.3155 -15.8304,70.5757 -23.2883,143.1353 -26.2207,215.4052 -1.7635,43.4616 -7.8357,88.897 5.2295,130.3858 18.3437,58.2509 50.9604,116.3882 98.8916,154.2334 32.5564,25.7057 100.2814,78.778 117.4805,41.0303 19.8079,-43.4733 -92.3527,-35.7074 -124.4531,-71.0889 -41.6951,-45.9569 -66.2025,-108.5948 -76.2159,-169.834 -6.9576,-42.5507 -1.1157,-87.8586 12.6123,-128.7305 10.5237,-31.332 23.195,-68.0586 51.8555,-84.5214 83.2844,-47.8391 193.2853,-21.9088 288.0762,-6.4307 31.6433,5.1669 62.6403,16.7237 90.4834,32.6221 20.3454,11.6172 33.7412,33.302 54.1406,44.8242 167.3324,94.5144 454.34,146.7478 680.625,222.7881 86.131,28.9433 176.6822,47.7095 257.6953,88.8574 l 62.5635,31.7724 c 12.303,6.2755 8.5202,24.7679 -5.2588,25.7081 l -160.9863,10.7812 c -163.1092,10.911 -325.9201,-27.1023 -488.086,-47.7393 -82.5931,-10.5108 -163.8328,-31.3853 -246.7675,-38.7304 -14.8791,-1.3178 -39.6052,-14.9444 -44.795,-0.9375 -10.0034,26.9985 54.9971,28.5934 66.6944,54.9023 24.6732,55.4935 22.2863,129.5263 -8.2764,182.0069 -52.0732,89.4172 -165.6126,129.6592 -262.7637,165.2783 -72.7858,26.6859 -154.2439,17.4751 -230.2441,32.7685 -132.2159,26.6055 -258.5803,79.1607 -391.4356,102.3633 -149.2962,26.0739 -301.3513,45.7954 -452.8271,40.8692 -138.0198,-4.4886 -274.4474,-34.2609 -409.3066,-63.9698 -85.5462,-18.8454 -165.1486,-76.2388 -252.6563,-72.2754 -37.2982,1.6893 -67.471,35.4268 -104.4726,40.4151 -62.0134,8.3601 -162.7855,-5.3135 -230.7569,-16.9922 -39.6493,-6.8125 -44.4952,-31.9236 -11.0303,-54.2578 70.2743,-46.9006 185.6245,-123.1981 256.7579,-166.5821 50.5439,-30.8266 135.6828,-78.5957 189.2285,-108.3398 26.8505,-14.9152 27.7425,-40.3812 1.9189,-57.0117 l -163.9746,-105.6006 c -91.9716,-59.2303 -170.7038,-137.9777 -245.4199,-217.8809 -39.2757,-42.0023 -51.3573,-155.3982 -105.6299,-136.3916 l -203.584,71.294 -275.9619,160.3857 c -8.88313,5.1594 -20.20641,3.0212 -26.59639,-5.0223 -6.38998,-8.0435 -5.91197,-19.557 1.12276,-27.0431 l 325.78123,-346.2598 c 168.0148,-178.5743 474.8386,-125.7542 716.9678,-164.3701 93.7234,-14.9474 190.3164,-43.6806 283.5351,-25.8545 30.2596,5.7865 70.4956,13.3713 82.4561,41.7627 l 68.2471,161.9824 c 5.9502,14.1155 25.7054,14.7815 32.5927,1.0987 l 44.1065,-87.7002 c 42.7229,-84.9404 109.5994,-155.7285 171.2402,-228.1201 42.1748,-49.5306 82.0389,-103.3417 135.4102,-140.5372 142.4697,-99.2898 324.2693,-126.7843 477.0849,-209.2675 z"
       inkscape:path-effect="#path-effect32" /></g></svg>
